<?xml version="1.0" encoding="UTF-8"?>
<svg width="72px" height="72px" viewBox="0 0 72 72" version="1.1" xmlns="http://www.w3.org/2000/svg" xmlns:xlink="http://www.w3.org/1999/xlink">
    <title>形状</title>
    <g id="页面-1" stroke="none" stroke-width="1" fill="none" fill-rule="evenodd">
        <g id="搬砖获利" transform="translate(-56.000000, -848.000000)" fill="#20BD42" fill-rule="nonzero">
            <g id="编组-7备份" transform="translate(56.000000, 848.000000)">
                <circle id="椭圆形" opacity="0.301106771" cx="36" cy="36" r="32.7272727"></circle>
                <path d="M52.2627912,24.2894312 L52.2627912,16.3636364 L19.8118238,16.3636364 L19.8118238,24.2894312 L31.77547,24.2894312 L31.77547,29.4675758 C22.0503864,29.9049292 14.7272727,31.8219865 14.7272727,34.1220599 C14.7272727,36.4221897 22.0503299,38.339134 31.77547,38.7765439 L31.77547,55.3946742 L40.2992015,55.3946742 L40.2992015,38.7726465 C49.9867799,38.3286845 57.2727273,36.4151292 57.2727273,34.1220034 C57.2727273,31.8285951 49.9867799,29.9144185 40.2992015,29.4710213 L40.2992015,24.2893748 L52.2627912,24.2893748 L52.2627912,24.2894312 Z M53.6088546,33.6538099 C53.6088546,35.1665567 47.9463057,36.4354634 40.2992015,36.7877523 L39.8050255,36.8087078 L39.7504057,36.8087078 L39.2870133,36.8257658 L39.2368558,36.8257658 C38.8921921,36.8375709 38.5433487,36.8476815 38.1900996,36.8556457 L38.1681839,36.8556457 L37.694342,36.8654739 L37.5604191,36.8654739 L37.1864969,36.8705009 L34.8185301,36.8705009 L34.4484488,36.8654739 L34.3198919,36.8654739 L33.8777939,36.8562106 L33.8292179,36.8562106 C33.3052184,36.8445184 32.7891267,36.8283641 32.2806603,36.8087078 L32.2739953,36.8087078 L31.7677882,36.7867921 C24.0825575,36.4398691 18.3835201,35.1665567 18.3835201,33.6465799 C18.3835201,32.1262643 24.0835177,30.8567363 31.7677882,30.5059724 L31.7677882,35.313132 C33.1017641,35.3826634 34.5208045,35.4207899 35.9925441,35.4207899 C37.4877246,35.4207899 38.9354022,35.3820421 40.2918586,35.3092911 L40.2918586,30.5202628 C47.9456279,30.871648 53.6088546,32.141176 53.6088546,33.6538099 L53.6088546,33.6538099 Z" id="形状"></path>
            </g>
        </g>
    </g>
</svg>