<?xml version="1.0" encoding="UTF-8"?>
<svg xmlns:xodm="http://www.corel.com/coreldraw/odm/2003" xmlns="http://www.w3.org/2000/svg" xmlns:xlink="http://www.w3.org/1999/xlink" version="1.1" id="Layer_1" x="0px" y="0px" viewBox="0 0 2500 2500" style="enable-background:new 0 0 2500 2500;" xml:space="preserve">
<style type="text/css">
	.st0{fill:#00003E;}
	.st1{fill:#0173E5;}
	.st2{fill:none;}
</style>
<g id="Layer_x0020_1">
	<g id="_2500397743552">
		<g>
			<path class="st0" d="M934.8,1962.7c6.4-595.4,639.4-721.2,568.5-1371.7c-20.4-187.3-110.8-409.3-294.2-586.9     c-9.6-9.3-25.5-1.5-24.3,11.7c55.3,597.6-366.3,880.9-555.8,1129.9C208.6,1698,517.6,2406.1,1140.7,2499.8     c13.8,2.1,22.2-14.7,12.3-24.5C1025.1,2348.6,934.8,2187.6,934.8,1962.7L934.8,1962.7L934.8,1962.7z"></path>
			<path class="st1" d="M1750.1,1009.7c-8.4-7.1-21.3-2.6-23.4,8.2c-15.1,77.2-63.2,204.7-217.4,428.1     c-399.4,578.6-206.4,835.7-32,1029.1c38.4,45.8,19.3-10.2,101-66.8c109.8-76,156.3-85.6,260.4-178.2     c118.7-118.9,215-306.1,224.3-495.8C2083.2,1322.3,1840.8,1086.7,1750.1,1009.7L1750.1,1009.7z"></path>
		</g>
		<rect y="0" class="st2" width="2500" height="2500"></rect>
	</g>
</g>
</svg>
