<?xml version="1.0" standalone="no"?><!DOCTYPE svg PUBLIC "-//W3C//DTD SVG 1.1//EN" "http://www.w3.org/Graphics/SVG/1.1/DTD/svg11.dtd"><svg t="1775976257795" class="icon" viewBox="0 0 1024 1024" version="1.1" xmlns="http://www.w3.org/2000/svg" p-id="4863" xmlns:xlink="http://www.w3.org/1999/xlink" width="200" height="200"><path d="M503.2 436.2c0-0.1 0.1-0.1 0.2-0.2-0.2-0.9-0.3-1.6-0.4-2.2 0 0.8 0.1 1.6 0.2 2.4z m171.4 187.2h-0.1 0.1z m4.4 0.5c-1.1-0.2-3.4 0.1-4.4-0.5-0.6 2 0.3 2.7 4.4 0.5zM512 65.6C265.5 65.6 65.6 265.5 65.6 512S265.5 958.4 512 958.4c246.5 0 446.4-199.9 446.4-446.4S758.5 65.6 512 65.6zM797.1 240c-15.4 0.5-26.1 0.5-38.4 9-5 3.4-8.4 8-14.7 9.8-5.7 1.6-11.8 0.2-17.4 2.1-20.3 6.9-17.1 50.3-43.8 43.8-12.6-3.1-21.4-17.9-27.7-27.6-5.6-8.5-15.7-15.6-8.9-26.2-3.1 0.8-6.5-0.1-9.5 0.5 4.3-9.4 18.6-8.6 21-13.4 5.9-12-16.4-13.3-22.7-15 7.6-8.1 11.5 2.7 19 0.9 7.2-1.8-3.8-11.3-8.1-12.4-1.6-0.4-27 7-12.3-6.2L579 170.5c-3.1 12.9 24.2 20.2 33.1 24.8-1.4 5.3-9.7 13.1-16 10.8-6-2.1-3.6-12-12.6-11-6.4 15 13.6 10.6 15.5 19.8 2.1 10.5-7.6 6-11.3 5.8-0.9 0-7.8-7.2-8.2-1.8-0.5 6.5 11.1 3.9 11.9 10.5-13.4 0.5-20.3-4.3-31.3-11.6-12.8-8.5-19.3-7.7-35-7.7 4.7-1.9 11.1-3.3 15.1-6.4 2.2-1.7 10.8-10 11.3-11.9 2.4-8-0.1-7.4-7.8-12.7-6.8-4.7-15.1-13.1-23.4-14.7-30-6-9.3 27.1-32 31.6h1.1-1.3 0.2c-5.3-0.2-15.1-1.5-18.5 1.3-2.4 2-2.6 9.8-5.3 12.7-4.8 5.1-11.9 6.1-17.6 9.8-5.5 3.6-17.8 12.8-21.1 19-12 23 27.1 30.1 41.9 36.8 6.7 3 26.3 7.2 29.9 12.2 4.9 6.8-4.2 13.2 6 18 3.3 1.5 10 1.8 12.8-1.3 4.6-5.1-1.9-6.3-2.9-12.2-2.1-11.4 1.4-6.9 7.1-11.1 11.7-8.7 9.1-9.2 4.9-23-2-6.4-9.3-24.3-2.8-29.1 8.5-6.2 26.5 3.3 33 4.2 7.6 0.9 11.8 11.4 16 15.7 2.7 2.8 7.6 8.9 12.4 8.2 7.6-1 4.4-7.7 8.8-10.7 11.8-8.2 14.9 2.9 19.6 14.1 4.4 10.4 8.6 14.3 16.5 21 3.7 3.1 19.7 14.3 18.2 21.1-1 4.6-19.3 11.6-24.2 13.2-17.9 5.7-51.5-9.3-55.1 19.1 6.9-2.6 26.7-18.7 32.6-11.1 2.7 3.5-2.1 8.5-1 12 3.4 10.3 11.3 6.7 19.7 5.1-0.6 0.4-1.2 0.7-1.8 0.9 11.4-5.9 10.2-4.7 15.5-14.2 1.7-3.1 4.3-10.6 6.7-12.9 8.3-7.6 9.6-2.4 14.7 3.5 1.3 1.6 14.1 19.9 9.5 19-14.8-3-29-2.6-41.3 5.5-7.1 4.7-13.8 11-22.2 14.1-2 0.7-17 2.2-15.2-0.4 2.6-3.7 11.5-6.2 15-10.2-9.7-4-17.8 4.8-25.5 10-8.1 3.8-10 11-16.9 17.3-3 2.7-8.7 3.2-11.7 6.8-2.9 3.5-3.2 9-5.9 12.3-1.9 2.3-6.8 0.9-8.8 4.4-2.6 4.6 2.4 8.8 1.3 12.1-2 6-13.4 11.1-17.8 15.4 0.6-0.6 1.2-1.1 1.7-1.7-4.4 4.6-9.9 8-13.4 13.3 1.6 7.5 6.5 25.4 5.1 29.6-4.6 13.6-13.4-7.4-17-12.8-12.3-18.6-37-6.2-53.9-4.6-21.6 2-42.7 30-29.4 52.7 6.4 10.9 17.1 15.1 29.4 12.6 11-2.2 14.3-17.6 24.6-17.9 19-0.5 0.4 18.6-1.2 25.6-1.5 6.5 2.4 7.1 9 8.7 4.9 1.2 11.9-2.1 16.2 0.7 2.7 1.8 2.6 11.5 6.3 8.4-7.3 6-5.6 20.4 1.9 25.6 8.3 5.8 18.1 0.4 26.7 2.6 16.4 4.2 8.6-1.2 23-9.9 9.7-5.9 11.3 1.1 18 1.1 4.5 0 7.4-6.5 14.9-4.6 6.2 1.6 8.6 6.3 16 7.4 3 0.4 6.1-1.1 9-0.8 13.6 1.5 24 10.2 34.7 18.1 8.8 6.5 14.7 5.2 25 8.1 7.5 2.1 21.5 13.1 20.7 22.6-0.1 1.7-6.7 10.3-7.8 14.2 1.9 1.3 15.3-1.7 19.3-1.9-1.3 1.5-10.4 7.9-10.4 4.5 0 1.7 6.5 5.3 8 6.4 4.8-15.5 12.6-5.5 22-1.7 8 3.3 17.9 3.4 26.4 5.5 7.3 1.7 23.2 6.6 28.6 12.6 6.5 7.1 2 18.7-2.8 25.8-6.3 9.3-15.7 12.9-19.6 23.8-3.1 8.7-0.8 17.4-2.5 27.1-2.4 13-4.3 8.5-12.7 16.4-7.1 6.7-0.1 5.5-9.7 9.8-9.7 4.3-18.1 3-24.8 13.6 0.3-0.7 0.5-1.3 0.7-2-2.8 3.9-4.2 12-5.6 14.7-3.4 6.8-8 11-13.3 16.7-2 2.2-20.8 27.8-21.9 25.7-1.4-2.7-16.2 2.7-16.9-1.1 0.6 3.2-0.1 2.1 3.5 4-3.4 21.1-12.3 24.2-33 24.4 1.8 10.1-7.5 8.1-11.8 13.6-2.5 3.2-3.7 12.1-5.5 16.2-1.1 2.6-9.2 13-9.2 15 0 1.9 2.7 4.7 5.3 7.3-14.6 2.9-29.5 4.9-44.6 6.1 2.8-3.6 3.5-6.7-5.5-7.1 2.4-6.5 8.1-10.3 10.5-16.6 1.1-3 0.2-4.2 1.2-7.1 3.3-10.2 1.9-6.4 0-14.3-4.4-18.6 1.5-23.7 6.6-40.8 5.2-17.5 4.7-40.3 8.1-59.2 1.6-9 4.2-27.8 1-36.4-3.5-9.6-19.1-17.2-26.2-23.7-10.1-9.2-15.5-19.1-22.9-30.5-3.8-5.8-8.1-11.4-11.1-17.7-6.3-13.4 0-5.4 1.1-13.3 1-7.6-0.9-14.5 2.1-22.5 3.4-8.9 11.7-14.4 14.5-23.4 2.5-8 0.6-18-7.6-20.6-4.6-1.5-9.6 1.9-14.2 1.2-6.4-1-13.6-5.8-18.6-9.6-7-5.3-9.6-14-17.1-19.1-6.2-4.2-10.7-1.7-17.4-3.7-7-2.1-11.3-10.6-16.9-13.3-8.4-4-13.2 1.8-22.1 0.6-7.6-1-19.1-9.4-26.2-12.5-14.4-6.4-23.1-13.5-28.9-28.1-4.9-12.5-12.1-18.4-20.6-28.8-8.6-10.6-11.2-19.6-24.4-22.4-1.5-0.3 3.2 11.1 3.7 12 4.7 8.7 11.8 16.7 17.5 24.9 8.4 12 4.8 14.2-3.7 2.6-9.8-13.3-21.1-26.4-29.5-40.5-3.2-5.3-2.6-8.7-7.9-13.8-5.1-4.9-11.8-7.2-16.9-11.9-18.5-16.6-21.8-38.8-19.7-62.4 0.7-7.7 3.5-13.9 2.2-21.3-1-6.2-4.7-11.3-9.2-15.8-1.5-2.3-5.1-8.1-5.4-8.4-4.2-7-7.5-13.8-14.1-19.5-3.8-3.3-13.7-11-23-17.4 41.8-52.2 96.5-93.5 159.3-119.1 0.5 3.2 1.9 6.3 3.9 9.3 5.2 7.7 10.1 7 20.2 9.2-1.1 11.7-14.7 11.8-24 10.5-11-1.5-22.7-5.2-32.2 4.5 5.3 3.2 19.8 15.6 17.9 2.6 10.6-0.5 20.8-0.8 31.2 0.4 4.1 0.5 18 5.2 21.8 3 1.6-0.9 3.3-8.7 4.9-11.1-2.9 0-6.1-1.5-9-1.2 6.8-8.8 13.7-1.9 22.4 2.1-9.6 5.8-3.9 19.8 5.5 8.5 7.7-9.3-1.9-16.1-11.7-21.6 9.9-12.3 16-13.5 25.3 0.5 1.5-8.6 8.5-5.2 15.7-4.5v-2.1c-3.2 0.1-6.6-1.8-9.8-1.4 7.4-11.8 2.7-14.5 13.2-18.3 8.4-3.1 32.4-0.2 35.4-8.1-16.8 3.3-37.1 4-52.2 11.7-6.5 3.3-14.3 13.7-20.8 6.9-6.7-6.9 4.8-18.1 10.6-21.5h-1.4c26.6-5.7 54.1-8.7 82.3-8.7 18.2 0 36.2 1.4 53.8 3.8-6.1 3.2-1.6 5.4-6 8.6-8.5 6.2-23.5 11.4-33.6 15.4 12.8 0 43.8 12 49.8-6-4.1-0.6-8.3-1.3-12.4-1.9 7.7-5.1 16.3-9.3 25.4-12.3 81.6 16.2 154.2 57.5 209.4 115.6-0.2-0.5-0.6-0.5-1-0.5z m72.3 156.7c0.7-1.6 2.5-2.1 3.2-3.4 1.5-2.7 1.2-4.6 3-6.9 2-2.5 4.6-3.1 6.8-5.1 0.7-0.6 1.3-1.4 1.8-2.3 6.6 18.5 11.9 37.6 15.6 56.9-0.1 0.1-0.2 0.4-0.3 0.5-1 0.8-7.2 1.7-8.5 1.7-4.5 0.2-7.9-2.8-11.1-5.7-3.3-2.9-7.2-6.7-9.6-10.4-2.5-4-1-8.1-0.8-12.6 0.1-3.8-1.8-9.2-0.1-12.7z m5.1 204.7c-7.7-6.7-16.7-15.6-22.2-24.2-5.8-9.2-2.2-18.7-1.8-29.2 0.4-8.9-4-21.5-0.2-29.5 1.7-3.6 5.7-4.8 7.3-7.8 3.5-6.3 2.7-10.6 7-16 4.6-5.8 10.7-7.3 15.8-11.8 5.3-4.8 5.2-8.6 8.6-14.7 2.5-4.5 8.3-12 13.8-15.9 3 19.8 4.5 39.8 4.5 59.8 0 35.2-4.7 69.3-13.4 101.8-7.5-2.1-13.5-7.4-19.4-12.5z m0 0" fill="#2186F0" p-id="4864"></path></svg>